<svg version="1.1" id="Layer_1" xmlns="http://www.w3.org/2000/svg" xmlns:xlink="http://www.w3.org/1999/xlink" viewBox="0 0 512.001 512.001" xml:space="preserve" width="64px" height="64px" fill="#000000"><g id="SVGRepo_bgCarrier" stroke-width="0"></g><g id="SVGRepo_tracerCarrier" stroke-linecap="round" stroke-linejoin="round"></g><g id="SVGRepo_iconCarrier"> <path style="fill:#FFAF00;" d="M332.803,10.449H95.726c-22.275,0-40.334,18.06-40.334,40.335v410.434 c0,22.276,18.059,40.334,40.334,40.334h320.546c22.275,0,40.334-18.059,40.334-40.334V134.253L332.803,10.449z"></path> <path style="fill:#FFD41D;" d="M373.139,134.253h83.467L332.806,10.451v83.47C332.803,116.195,350.861,134.253,373.139,134.253z"></path> <rect x="136.882" y="172.91" style="fill:#FFFFFF;" width="185.992" height="185.992"></rect> <polygon style="fill:#E6E7E8;" points="322.869,225.168 322.869,358.906 189.131,358.906 189.131,411.16 375.122,411.16 375.122,225.168 "></polygon> <path d="M463.996,126.864L340.192,3.061C338.232,1.101,335.574,0,332.803,0H95.726C67.725,0,44.944,22.782,44.944,50.784v410.434 c0,28.001,22.781,50.783,50.783,50.783h320.546c28.001,0,50.783-22.781,50.783-50.783V134.253 C467.056,131.482,465.955,128.824,463.996,126.864z M343.255,35.678l88.126,88.126h-58.242c-7.984,0-15.49-3.109-21.134-8.753 c-5.643-5.643-8.752-13.148-8.751-21.131V35.678H343.255z M416.274,491.102H95.726c-16.479,0-29.885-13.406-29.885-29.885V50.784 c0.001-16.479,13.407-29.886,29.885-29.886h226.631v73.021c-0.002,13.565,5.28,26.318,14.872,35.909 c9.591,9.592,22.345,14.874,35.911,14.874h73.019v316.515C446.158,477.696,432.752,491.102,416.274,491.102z"></path> <path d="M375.122,214.719h-41.804v-41.805c0-5.771-4.678-10.449-10.449-10.449H136.877c-5.771,0-10.449,4.678-10.449,10.449v185.992 c0,5.771,4.678,10.449,10.449,10.449h41.804v41.805c0,5.771,4.678,10.449,10.449,10.449h185.992c5.771,0,10.449-4.678,10.449-10.449 V225.168C385.572,219.397,380.893,214.719,375.122,214.719z M147.326,183.363H312.42v165.094H147.326V183.363z M364.674,400.711 H199.58v-31.356h123.29c5.771,0,10.449-4.678,10.449-10.449V235.617h31.355V400.711z"></path> <path d="M272.173,144.702h4.678c5.771,0,10.449-4.678,10.449-10.449s-4.678-10.449-10.449-10.449h-4.678 c-5.771,0-10.449,4.678-10.449,10.449C261.725,140.024,266.403,144.702,272.173,144.702z"></path> <path d="M136.877,144.702h101.492c5.771,0,10.449-4.678,10.449-10.449s-4.678-10.449-10.449-10.449H136.877 c-5.771,0-10.449,4.678-10.449,10.449C126.428,140.024,131.106,144.702,136.877,144.702z"></path> </g></svg>